<?xml version="1.0" encoding="UTF-8" standalone="no"?>
<!DOCTYPE svg PUBLIC "-//W3C//DTD SVG 20010904//EN"
"http://www.w3.org/TR/2001/REC-SVG-20010904/DTD/svg10.dtd">
<!-- Created with Inkscape (http://www.inkscape.org/) -->
<svg
   id="svg1"
   sodipodi:version="0.32"
   inkscape:version="0.40"
   width="96pt"
   height="96pt"
   sodipodi:docbase="/home/caladd/Projects/gnome-password-generator"
   sodipodi:docname="gnome-password-generator.svg"
   xmlns="http://www.w3.org/2000/svg"
   xmlns:inkscape="http://www.inkscape.org/namespaces/inkscape"
   xmlns:sodipodi="http://sodipodi.sourceforge.net/DTD/sodipodi-0.dtd"
   xmlns:xlink="http://www.w3.org/1999/xlink"
   xmlns:rdf="http://www.w3.org/1999/02/22-rdf-syntax-ns#"
   xmlns:cc="http://web.resource.org/cc/"
   xmlns:dc="http://purl.org/dc/elements/1.1/">
  <metadata
     id="metadata30">
    <rdf:RDF
       id="RDF31">
      <cc:Work
         rdf:about=""
         id="Work32">
        <dc:format
           id="format33">image/svg+xml</dc:format>
        <dc:type
           id="type35"
           rdf:resource="http://purl.org/dc/dcmitype/StillImage" />
      </cc:Work>
    </rdf:RDF>
  </metadata>
  <defs
     id="defs3">
    <linearGradient
       id="linearGradient701">
      <stop
         style="stop-color:#000;stop-opacity:1;"
         offset="0"
         id="stop702" />
      <stop
         style="stop-color:#fff;stop-opacity:1;"
         offset="1"
         id="stop703" />
    </linearGradient>
    <linearGradient
       id="linearGradient590">
      <stop
         style="stop-color:#000;stop-opacity:1;"
         offset="0"
         id="stop591" />
      <stop
         style="stop-color:#fff;stop-opacity:1;"
         offset="1"
         id="stop592" />
    </linearGradient>
    <linearGradient
       xlink:href="#linearGradient701"
       id="linearGradient593" />
    <radialGradient
       xlink:href="#linearGradient590"
       id="radialGradient599"
       cx="0.50000000"
       cy="0.50000000"
       r="0.50000000"
       fx="0.50000000"
       fy="0.50000000" />
    <linearGradient
       xlink:href="#linearGradient590"
       id="linearGradient603"
       x1="0.28125000"
       y1="0.27343750"
       x2="1.78125000"
       y2="2.00000000" />
    <radialGradient
       xlink:href="#linearGradient590"
       id="radialGradient604" />
    <linearGradient
       xlink:href="#linearGradient701"
       id="linearGradient704" />
  </defs>
  <sodipodi:namedview
     id="base"
     pagecolor="#ffffff"
     bordercolor="#666666"
     borderopacity="1.0"
     inkscape:pageopacity="0.0"
     inkscape:pageshadow="2"
     inkscape:zoom="6.5454546"
     inkscape:cx="56.000000"
     inkscape:cy="46.999998"
     inkscape:window-width="959"
     inkscape:window-height="933"
     showgrid="true"
     gridspacingy="5pt"
     gridspacingx="5pt"
     gridoriginx="0pt"
     gridoriginy="1pt"
     inkscape:window-x="404"
     inkscape:window-y="117"
     inkscape:current-layer="svg1" />
  <g
     id="Layer_x0020_1"
     style="fill-rule:nonzero;clip-rule:nonzero;stroke:none;stroke-miterlimit:4;stroke-width:0.99377;stroke-dasharray:none;fill:url(#linearGradient603);"
     transform="matrix(0.857453,0.000000,0.000000,0.930154,18.75227,4.999995)">
    <g
       style="stroke:none;stroke-width:0.99377;stroke-dasharray:none;fill:url(#linearGradient603);"
       id="g662">
      <g
         id="g664"
         style="stroke-width:0.99377;stroke-dasharray:none;stroke:none;fill:url(#linearGradient603);">
        <path
           d="M86.068,0C61.466,0,56.851,35.041,70.691,35.041C84.529,35.041,110.671,0,86.068,0z"
           id="path666"
           style="stroke-width:0.99377;stroke-dasharray:none;stroke:none;fill:url(#linearGradient603);" />
        <path
           d="M45.217,30.699c7.369,0.45,15.454-28.122,1.604-26.325c-13.845,1.797-8.976,25.875-1.604,26.325z"
           id="path668"
           style="stroke-width:0.99377;stroke-dasharray:none;stroke:none;fill:url(#linearGradient603);" />
        <path
           d="M11.445,48.453c5.241-2.307,0.675-24.872-8.237-18.718c-8.908,6.155,2.996,21.024,8.237,18.718z"
           id="path670"
           style="stroke-width:0.99377;stroke-dasharray:none;stroke:none;fill:url(#linearGradient603);" />
        <path
           d="M26.212,36.642c6.239-1.272,6.581-26.864-4.545-22.273c-11.128,4.592-1.689,23.547,4.545,22.273z"
           id="path672"
           style="stroke-width:0.99377;stroke-dasharray:none;stroke:none;fill:url(#linearGradient603);" />
        <path
           id="newshape"
           d="M58.791,93.913c1.107,8.454-6.202,12.629-13.36,7.179C22.644,83.743,83.16,75.089,79.171,51.386c-3.311-19.674-63.676-13.617-70.55,17.166C3.968,89.374,27.774,118.26,52.614,118.26c12.22,0,26.315-11.034,28.952-25.012      c2.014-10.659-23.699-6.388-22.775,0.665z"
           style="stroke-width:0.99377;stroke-dasharray:none;stroke:none;fill:url(#linearGradient603);" />
      </g>
    </g>
  </g>
  <rect
     style="font-size:12;fill-opacity:0.75;fill-rule:evenodd;stroke:#000000;stroke-width:1.32617;stroke-linecap:round;stroke-linejoin:round;fill:#ffffff;"
     id="rect770"
     width="110.00000000"
     height="27.49999948"
     x="5.00000000"
     y="57.50000238" />
  <path
     style="font-size:12;fill:#336699;fill-rule:evenodd;stroke:#000000;stroke-width:0.625235;stroke-linecap:round;stroke-linejoin:round;fill-opacity:1.0000000;"
     d="M 10.587367 61.406252 L 13.456435 60.000002 L 14.641485 66.656252 L 17.167512 61.156252 L 19.41287 64.500002 L 16.543802 69.750001 L 20.566734 70.625001 L 20.067766 75.625002 L 16.076019 74.062502 L 17.635295 80.562502 L 14.922154 82.500001 L 13.674734 75.656252 L 11.179892 81.281252 L 8.7786066 78.281252 L 11.67886 72.562502 L 7.5000003 71.718751 L 8.0613397 66.656252 L 12.146643 68.312501 L 10.587367 61.406252 z "
     id="path601" />
  <path
     style="font-size:12;fill:#336699;fill-rule:evenodd;stroke:#000000;stroke-width:0.625235;stroke-linecap:round;stroke-linejoin:round;fill-opacity:1.0000000;"
     d="M 47.43817 61.406252 L 50.307238 60.000002 L 51.492288 66.656252 L 54.018315 61.156252 L 56.263673 64.500002 L 53.394605 69.750001 L 57.417537 70.625001 L 56.918569 75.625002 L 52.926822 74.062502 L 54.486098 80.562502 L 51.772958 82.500001 L 50.525537 75.656252 L 48.030695 81.281252 L 45.62941 78.281252 L 48.529663 72.562502 L 44.350804 71.718751 L 44.912143 66.656252 L 48.997446 68.312501 L 47.43817 61.406252 z "
     id="path603" />
  <path
     style="font-size:12;fill:#336699;fill-rule:evenodd;stroke:#000000;stroke-width:0.625235;stroke-linecap:round;stroke-linejoin:round;fill-opacity:1.0000000;"
     d="M 102.52063 61.406251 L 105.38969 60.000001 L 106.57475 66.656251 L 109.10078 61.156251 L 111.34613 64.500001 L 108.47707 69.75 L 112.5 70.625 L 112.00103 75.625001 L 108.00928 74.062501 L 109.56856 80.562501 L 106.85542 82.5 L 105.608 75.656251 L 103.11316 81.281251 L 100.71187 78.281251 L 103.61212 72.562501 L 99.43327 71.71875 L 99.994608 66.656251 L 104.0799 68.3125 L 102.52063 61.406251 z "
     id="path604" />
  <path
     style="font-size:12;fill:#336699;fill-rule:evenodd;stroke:#000000;stroke-width:0.625235;stroke-linecap:round;stroke-linejoin:round;fill-opacity:1.0000000;"
     d="M 28.700473 61.406252 L 31.569542 60.000002 L 32.754591 66.656252 L 35.280619 61.156252 L 37.525976 64.500006 L 34.656908 69.749998 L 38.679841 70.625 L 38.180872 75.625001 L 34.189125 74.062501 L 35.748402 80.562503 L 33.035261 82.500001 L 31.78784 75.656255 L 29.292998 81.281255 L 26.891713 78.281251 L 29.791967 72.562499 L 25.613108 71.71875 L 26.174446 66.656252 L 30.25975 68.312504 L 28.700473 61.406252 z "
     id="path605" />
  <path
     style="font-size:12;fill:#336699;fill-rule:evenodd;stroke:#000000;stroke-width:0.625235;stroke-linecap:round;stroke-linejoin:round;fill-opacity:1.0000000;"
     d="M 65.872247 61.40625 L 68.741315 60 L 69.926365 66.65625 L 72.452392 61.15625 L 74.69775 64.5 L 71.828682 69.749999 L 75.851614 70.624999 L 75.352646 75.625 L 71.360899 74.0625 L 72.920175 80.5625 L 70.207035 82.499999 L 68.959614 75.65625 L 66.464772 81.28125 L 64.063487 78.28125 L 66.96374 72.5625 L 62.784881 71.718749 L 63.346219 66.65625 L 67.431523 68.312499 L 65.872247 61.40625 z "
     id="path606" />
  <path
     style="font-size:12;fill:#336699;fill-rule:evenodd;stroke:#000000;stroke-width:0.625235;stroke-linecap:round;stroke-linejoin:round;fill-opacity:1.0000000;"
     d="M 84.288973 61.406251 L 87.158041 60.000001 L 88.343091 66.656251 L 90.869118 61.156251 L 93.114476 64.500001 L 90.245408 69.75 L 94.268341 70.625 L 93.769372 75.625001 L 89.777625 74.062501 L 91.336901 80.562501 L 88.623761 82.5 L 87.37634 75.656251 L 84.881498 81.281251 L 82.480213 78.281251 L 85.380466 72.562501 L 81.201607 71.71875 L 81.762946 66.656251 L 85.848249 68.3125 L 84.288973 61.406251 z "
     id="path607" />
</svg>
